# xmcd
#
# Track frame offsets: 
#        150
#        1700
#        10200
#        32370
#        33405
#        50640
#        67680
#        69005
#        85572
#        99475
#
# Disc length: 1338 seconds
#
# Revision: 5
# Processed by: cddbd v1.5.2PL0 Copyright (c) Steve Scherf et al.
# Submitted via: ExactAudioCopy v1.3
#
DISCID=5f05380a
DTITLE=BR5-49 - Live From Robert's
DYEAR=1996
DGENRE=Country
TTITLE0=Boot Plug (Dialog)
TTITLE1=Hillbilly Thang
TTITLE2=18 Wheels and A Crowbar
TTITLE3=Bettie Plug (Dialog)
TTITLE4=Bettie Bettie
TTITLE5=Me 'N' Opie (Down By The Duck Pond)
TTITLE6=Tip Plug (Dialog)
TTITLE7=Knoxville Girl
TTITLE8=Ole Slewfoot
TTITLE9=Fire Marshall (Dialog)
EXTD=YEAR: 1996 ID3G: 2
EXTT0=
EXTT1=
EXTT2=
EXTT3=
EXTT4=
EXTT5=
EXTT6=
EXTT7=
EXTT8=
EXTT9=
PLAYORDER=
